%TF.GenerationSoftware,KiCad,Pcbnew,8.0.3*%
%TF.CreationDate,2024-07-09T19:30:08+02:00*%
%TF.ProjectId,UART-TTL-Flipper_Zero,55415254-2d54-4544-9c2d-466c69707065,rev?*%
%TF.SameCoordinates,Original*%
%TF.FileFunction,Copper,L2,Bot*%
%TF.FilePolarity,Positive*%
%FSLAX46Y46*%
G04 Gerber Fmt 4.6, Leading zero omitted, Abs format (unit mm)*
G04 Created by KiCad (PCBNEW 8.0.3) date 2024-07-09 19:30:08*
%MOMM*%
%LPD*%
G01*
G04 APERTURE LIST*
%TA.AperFunction,ComponentPad*%
%ADD10R,1.700000X1.700000*%
%TD*%
%TA.AperFunction,ComponentPad*%
%ADD11O,1.700000X1.700000*%
%TD*%
%TA.AperFunction,ComponentPad*%
%ADD12C,1.600000*%
%TD*%
%TA.AperFunction,ComponentPad*%
%ADD13R,1.600000X1.600000*%
%TD*%
%TA.AperFunction,ComponentPad*%
%ADD14C,4.000000*%
%TD*%
%TA.AperFunction,ViaPad*%
%ADD15C,0.600000*%
%TD*%
G04 APERTURE END LIST*
D10*
%TO.P,J1,1,Pin_1*%
%TO.N,GND*%
X86540000Y-94500000D03*
D11*
%TO.P,J1,2,Pin_2*%
%TO.N,unconnected-(J1-Pin_2-Pad2)*%
X84000000Y-94500000D03*
%TO.P,J1,3,Pin_3*%
%TO.N,unconnected-(J1-Pin_3-Pad3)*%
X81460000Y-94500000D03*
%TO.P,J1,4,Pin_4*%
%TO.N,unconnected-(J1-Pin_4-Pad4)*%
X78920000Y-94500000D03*
%TO.P,J1,5,Pin_5*%
%TO.N,Net-(J1-Pin_5)*%
X76380000Y-94500000D03*
%TO.P,J1,6,Pin_6*%
%TO.N,Net-(J1-Pin_6)*%
X73840000Y-94500000D03*
%TO.P,J1,7,Pin_7*%
%TO.N,unconnected-(J1-Pin_7-Pad7)*%
X71300000Y-94500000D03*
%TO.P,J1,8,Pin_8*%
%TO.N,GND*%
X68760000Y-94500000D03*
%TO.P,J1,9,Pin_9*%
%TO.N,unconnected-(J1-Pin_9-Pad9)*%
X66220000Y-94500000D03*
%TO.P,J1,10,Pin_10*%
%TO.N,+3.3V*%
X63680000Y-94500000D03*
%TD*%
D12*
%TO.P,J2,9,9*%
%TO.N,unconnected-(J2-Pad9)*%
X94500000Y-81000000D03*
%TO.P,J2,8,8*%
%TO.N,unconnected-(J2-Pad8)*%
X94500000Y-78230000D03*
%TO.P,J2,7,7*%
%TO.N,unconnected-(J2-Pad7)*%
X94500000Y-75460000D03*
%TO.P,J2,6,6*%
%TO.N,unconnected-(J2-Pad6)*%
X94500000Y-72690000D03*
%TO.P,J2,5,5*%
%TO.N,GND*%
X91660000Y-82385000D03*
%TO.P,J2,4,4*%
%TO.N,unconnected-(J2-Pad4)*%
X91660000Y-79615000D03*
%TO.P,J2,3,3*%
%TO.N,Net-(U1-T2OUT)*%
X91660000Y-76845000D03*
%TO.P,J2,2,2*%
%TO.N,Net-(U1-R2IN)*%
X91660000Y-74075000D03*
D13*
%TO.P,J2,1,1*%
%TO.N,GND*%
X91660000Y-71305000D03*
D14*
%TO.P,J2,0,PAD*%
X93080000Y-64345000D03*
X93080000Y-89345000D03*
%TD*%
D15*
%TO.N,GND*%
X85500000Y-85500000D03*
X73500000Y-77000000D03*
X73500000Y-82000000D03*
X87000000Y-77000000D03*
%TD*%
%TA.AperFunction,Conductor*%
%TO.N,GND*%
G36*
X86790000Y-95850000D02*
G01*
X87375500Y-95850000D01*
X87442539Y-95869685D01*
X87488294Y-95922489D01*
X87499500Y-95974000D01*
X87499500Y-97375500D01*
X87479815Y-97442539D01*
X87427011Y-97488294D01*
X87375500Y-97499500D01*
X62624500Y-97499500D01*
X62557461Y-97479815D01*
X62511706Y-97427011D01*
X62500500Y-97375500D01*
X62500500Y-95529758D01*
X62520185Y-95462719D01*
X62572989Y-95416964D01*
X62642147Y-95407020D01*
X62705703Y-95436045D01*
X62712181Y-95442077D01*
X62808599Y-95538495D01*
X62847726Y-95565892D01*
X63002165Y-95674032D01*
X63002167Y-95674033D01*
X63002170Y-95674035D01*
X63216337Y-95773903D01*
X63444592Y-95835063D01*
X63615319Y-95850000D01*
X63679999Y-95855659D01*
X63680000Y-95855659D01*
X63680001Y-95855659D01*
X63744681Y-95850000D01*
X63915408Y-95835063D01*
X64143663Y-95773903D01*
X64357830Y-95674035D01*
X64551401Y-95538495D01*
X64718495Y-95371401D01*
X64848425Y-95185842D01*
X64903002Y-95142217D01*
X64972500Y-95135023D01*
X65034855Y-95166546D01*
X65051575Y-95185842D01*
X65181281Y-95371082D01*
X65181505Y-95371401D01*
X65348599Y-95538495D01*
X65387726Y-95565892D01*
X65542165Y-95674032D01*
X65542167Y-95674033D01*
X65542170Y-95674035D01*
X65756337Y-95773903D01*
X65984592Y-95835063D01*
X66155319Y-95850000D01*
X66219999Y-95855659D01*
X66220000Y-95855659D01*
X66220001Y-95855659D01*
X66284681Y-95850000D01*
X66455408Y-95835063D01*
X66683663Y-95773903D01*
X66897830Y-95674035D01*
X67091401Y-95538495D01*
X67258495Y-95371401D01*
X67388730Y-95185405D01*
X67443307Y-95141781D01*
X67512805Y-95134587D01*
X67575160Y-95166110D01*
X67591879Y-95185405D01*
X67721890Y-95371078D01*
X67888917Y-95538105D01*
X68082421Y-95673600D01*
X68296507Y-95773429D01*
X68296516Y-95773433D01*
X68510000Y-95830634D01*
X68510000Y-94933012D01*
X68567007Y-94965925D01*
X68694174Y-95000000D01*
X68825826Y-95000000D01*
X68952993Y-94965925D01*
X69010000Y-94933012D01*
X69010000Y-95830633D01*
X69223483Y-95773433D01*
X69223492Y-95773429D01*
X69437578Y-95673600D01*
X69631082Y-95538105D01*
X69798105Y-95371082D01*
X69928119Y-95185405D01*
X69982696Y-95141781D01*
X70052195Y-95134588D01*
X70114549Y-95166110D01*
X70131269Y-95185405D01*
X70261505Y-95371401D01*
X70428599Y-95538495D01*
X70467726Y-95565892D01*
X70622165Y-95674032D01*
X70622167Y-95674033D01*
X70622170Y-95674035D01*
X70836337Y-95773903D01*
X71064592Y-95835063D01*
X71235319Y-95850000D01*
X71299999Y-95855659D01*
X71300000Y-95855659D01*
X71300001Y-95855659D01*
X71364681Y-95850000D01*
X71535408Y-95835063D01*
X71763663Y-95773903D01*
X71977830Y-95674035D01*
X72171401Y-95538495D01*
X72338495Y-95371401D01*
X72468425Y-95185842D01*
X72523002Y-95142217D01*
X72592500Y-95135023D01*
X72654855Y-95166546D01*
X72671575Y-95185842D01*
X72801281Y-95371082D01*
X72801505Y-95371401D01*
X72968599Y-95538495D01*
X73007726Y-95565892D01*
X73162165Y-95674032D01*
X73162167Y-95674033D01*
X73162170Y-95674035D01*
X73376337Y-95773903D01*
X73604592Y-95835063D01*
X73775319Y-95850000D01*
X73839999Y-95855659D01*
X73840000Y-95855659D01*
X73840001Y-95855659D01*
X73904681Y-95850000D01*
X74075408Y-95835063D01*
X74303663Y-95773903D01*
X74517830Y-95674035D01*
X74711401Y-95538495D01*
X74878495Y-95371401D01*
X75008425Y-95185842D01*
X75063002Y-95142217D01*
X75132500Y-95135023D01*
X75194855Y-95166546D01*
X75211575Y-95185842D01*
X75341281Y-95371082D01*
X75341505Y-95371401D01*
X75508599Y-95538495D01*
X75547726Y-95565892D01*
X75702165Y-95674032D01*
X75702167Y-95674033D01*
X75702170Y-95674035D01*
X75916337Y-95773903D01*
X76144592Y-95835063D01*
X76315319Y-95850000D01*
X76379999Y-95855659D01*
X76380000Y-95855659D01*
X76380001Y-95855659D01*
X76444681Y-95850000D01*
X76615408Y-95835063D01*
X76843663Y-95773903D01*
X77057830Y-95674035D01*
X77251401Y-95538495D01*
X77418495Y-95371401D01*
X77548425Y-95185842D01*
X77603002Y-95142217D01*
X77672500Y-95135023D01*
X77734855Y-95166546D01*
X77751575Y-95185842D01*
X77881281Y-95371082D01*
X77881505Y-95371401D01*
X78048599Y-95538495D01*
X78087726Y-95565892D01*
X78242165Y-95674032D01*
X78242167Y-95674033D01*
X78242170Y-95674035D01*
X78456337Y-95773903D01*
X78684592Y-95835063D01*
X78855319Y-95850000D01*
X78919999Y-95855659D01*
X78920000Y-95855659D01*
X78920001Y-95855659D01*
X78984681Y-95850000D01*
X79155408Y-95835063D01*
X79383663Y-95773903D01*
X79597830Y-95674035D01*
X79791401Y-95538495D01*
X79958495Y-95371401D01*
X80088425Y-95185842D01*
X80143002Y-95142217D01*
X80212500Y-95135023D01*
X80274855Y-95166546D01*
X80291575Y-95185842D01*
X80421281Y-95371082D01*
X80421505Y-95371401D01*
X80588599Y-95538495D01*
X80627726Y-95565892D01*
X80782165Y-95674032D01*
X80782167Y-95674033D01*
X80782170Y-95674035D01*
X80996337Y-95773903D01*
X81224592Y-95835063D01*
X81395319Y-95850000D01*
X81459999Y-95855659D01*
X81460000Y-95855659D01*
X81460001Y-95855659D01*
X81524681Y-95850000D01*
X81695408Y-95835063D01*
X81923663Y-95773903D01*
X82137830Y-95674035D01*
X82331401Y-95538495D01*
X82498495Y-95371401D01*
X82628425Y-95185842D01*
X82683002Y-95142217D01*
X82752500Y-95135023D01*
X82814855Y-95166546D01*
X82831575Y-95185842D01*
X82961281Y-95371082D01*
X82961505Y-95371401D01*
X83128599Y-95538495D01*
X83167726Y-95565892D01*
X83322165Y-95674032D01*
X83322167Y-95674033D01*
X83322170Y-95674035D01*
X83536337Y-95773903D01*
X83764592Y-95835063D01*
X83935319Y-95850000D01*
X83999999Y-95855659D01*
X84000000Y-95855659D01*
X84000001Y-95855659D01*
X84064681Y-95850000D01*
X84235408Y-95835063D01*
X84463663Y-95773903D01*
X84677830Y-95674035D01*
X84871401Y-95538495D01*
X84993717Y-95416178D01*
X85055036Y-95382696D01*
X85124728Y-95387680D01*
X85180662Y-95429551D01*
X85197577Y-95460528D01*
X85246646Y-95592088D01*
X85246649Y-95592093D01*
X85332809Y-95707187D01*
X85332812Y-95707190D01*
X85447906Y-95793350D01*
X85447913Y-95793354D01*
X85582620Y-95843596D01*
X85582627Y-95843598D01*
X85642155Y-95849999D01*
X85642172Y-95850000D01*
X86290000Y-95850000D01*
X86290000Y-94933012D01*
X86347007Y-94965925D01*
X86474174Y-95000000D01*
X86605826Y-95000000D01*
X86732993Y-94965925D01*
X86790000Y-94933012D01*
X86790000Y-95850000D01*
G37*
%TD.AperFunction*%
%TA.AperFunction,Conductor*%
G36*
X101942539Y-61020185D02*
G01*
X101988294Y-61072989D01*
X101999500Y-61124500D01*
X101999500Y-94875500D01*
X101979815Y-94942539D01*
X101927011Y-94988294D01*
X101875500Y-94999500D01*
X88014000Y-94999500D01*
X87946961Y-94979815D01*
X87901206Y-94927011D01*
X87890000Y-94875500D01*
X87890000Y-94750000D01*
X86973012Y-94750000D01*
X87005925Y-94692993D01*
X87040000Y-94565826D01*
X87040000Y-94434174D01*
X87005925Y-94307007D01*
X86973012Y-94250000D01*
X87890000Y-94250000D01*
X87890000Y-93602172D01*
X87889999Y-93602155D01*
X87883598Y-93542627D01*
X87883596Y-93542620D01*
X87833354Y-93407913D01*
X87833350Y-93407906D01*
X87747190Y-93292812D01*
X87747187Y-93292809D01*
X87632093Y-93206649D01*
X87632086Y-93206645D01*
X87497379Y-93156403D01*
X87497372Y-93156401D01*
X87437844Y-93150000D01*
X86790000Y-93150000D01*
X86790000Y-94066988D01*
X86732993Y-94034075D01*
X86605826Y-94000000D01*
X86474174Y-94000000D01*
X86347007Y-94034075D01*
X86290000Y-94066988D01*
X86290000Y-93150000D01*
X85642155Y-93150000D01*
X85582627Y-93156401D01*
X85582620Y-93156403D01*
X85447913Y-93206645D01*
X85447906Y-93206649D01*
X85332812Y-93292809D01*
X85332809Y-93292812D01*
X85246649Y-93407906D01*
X85246645Y-93407913D01*
X85197578Y-93539470D01*
X85155707Y-93595404D01*
X85090242Y-93619821D01*
X85021969Y-93604969D01*
X84993715Y-93583819D01*
X84949366Y-93539470D01*
X84871401Y-93461505D01*
X84871397Y-93461502D01*
X84871396Y-93461501D01*
X84677834Y-93325967D01*
X84677830Y-93325965D01*
X84606727Y-93292809D01*
X84463663Y-93226097D01*
X84463659Y-93226096D01*
X84463655Y-93226094D01*
X84235413Y-93164938D01*
X84235403Y-93164936D01*
X84000001Y-93144341D01*
X83999999Y-93144341D01*
X83764596Y-93164936D01*
X83764586Y-93164938D01*
X83536344Y-93226094D01*
X83536335Y-93226098D01*
X83322171Y-93325964D01*
X83322169Y-93325965D01*
X83128597Y-93461505D01*
X82961505Y-93628597D01*
X82831575Y-93814158D01*
X82776998Y-93857783D01*
X82707500Y-93864977D01*
X82645145Y-93833454D01*
X82628425Y-93814158D01*
X82498494Y-93628597D01*
X82331402Y-93461506D01*
X82331395Y-93461501D01*
X82137834Y-93325967D01*
X82137830Y-93325965D01*
X82066727Y-93292809D01*
X81923663Y-93226097D01*
X81923659Y-93226096D01*
X81923655Y-93226094D01*
X81695413Y-93164938D01*
X81695403Y-93164936D01*
X81460001Y-93144341D01*
X81459999Y-93144341D01*
X81224596Y-93164936D01*
X81224586Y-93164938D01*
X80996344Y-93226094D01*
X80996335Y-93226098D01*
X80782171Y-93325964D01*
X80782169Y-93325965D01*
X80588597Y-93461505D01*
X80421505Y-93628597D01*
X80291575Y-93814158D01*
X80236998Y-93857783D01*
X80167500Y-93864977D01*
X80105145Y-93833454D01*
X80088425Y-93814158D01*
X79958494Y-93628597D01*
X79791402Y-93461506D01*
X79791395Y-93461501D01*
X79597834Y-93325967D01*
X79597830Y-93325965D01*
X79526727Y-93292809D01*
X79383663Y-93226097D01*
X79383659Y-93226096D01*
X79383655Y-93226094D01*
X79155413Y-93164938D01*
X79155403Y-93164936D01*
X78920001Y-93144341D01*
X78919999Y-93144341D01*
X78684596Y-93164936D01*
X78684586Y-93164938D01*
X78456344Y-93226094D01*
X78456335Y-93226098D01*
X78242171Y-93325964D01*
X78242169Y-93325965D01*
X78048597Y-93461505D01*
X77881505Y-93628597D01*
X77751575Y-93814158D01*
X77696998Y-93857783D01*
X77627500Y-93864977D01*
X77565145Y-93833454D01*
X77548425Y-93814158D01*
X77418494Y-93628597D01*
X77251402Y-93461506D01*
X77251395Y-93461501D01*
X77057834Y-93325967D01*
X77057830Y-93325965D01*
X76986727Y-93292809D01*
X76843663Y-93226097D01*
X76843659Y-93226096D01*
X76843655Y-93226094D01*
X76615413Y-93164938D01*
X76615403Y-93164936D01*
X76380001Y-93144341D01*
X76379999Y-93144341D01*
X76144596Y-93164936D01*
X76144586Y-93164938D01*
X75916344Y-93226094D01*
X75916335Y-93226098D01*
X75702171Y-93325964D01*
X75702169Y-93325965D01*
X75508597Y-93461505D01*
X75341505Y-93628597D01*
X75211575Y-93814158D01*
X75156998Y-93857783D01*
X75087500Y-93864977D01*
X75025145Y-93833454D01*
X75008425Y-93814158D01*
X74878494Y-93628597D01*
X74711402Y-93461506D01*
X74711395Y-93461501D01*
X74517834Y-93325967D01*
X74517830Y-93325965D01*
X74446727Y-93292809D01*
X74303663Y-93226097D01*
X74303659Y-93226096D01*
X74303655Y-93226094D01*
X74075413Y-93164938D01*
X74075403Y-93164936D01*
X73840001Y-93144341D01*
X73839999Y-93144341D01*
X73604596Y-93164936D01*
X73604586Y-93164938D01*
X73376344Y-93226094D01*
X73376335Y-93226098D01*
X73162171Y-93325964D01*
X73162169Y-93325965D01*
X72968597Y-93461505D01*
X72801505Y-93628597D01*
X72671575Y-93814158D01*
X72616998Y-93857783D01*
X72547500Y-93864977D01*
X72485145Y-93833454D01*
X72468425Y-93814158D01*
X72338494Y-93628597D01*
X72171402Y-93461506D01*
X72171395Y-93461501D01*
X71977834Y-93325967D01*
X71977830Y-93325965D01*
X71906727Y-93292809D01*
X71763663Y-93226097D01*
X71763659Y-93226096D01*
X71763655Y-93226094D01*
X71535413Y-93164938D01*
X71535403Y-93164936D01*
X71300001Y-93144341D01*
X71299999Y-93144341D01*
X71064596Y-93164936D01*
X71064586Y-93164938D01*
X70836344Y-93226094D01*
X70836335Y-93226098D01*
X70622171Y-93325964D01*
X70622169Y-93325965D01*
X70428597Y-93461505D01*
X70261508Y-93628594D01*
X70131269Y-93814595D01*
X70076692Y-93858219D01*
X70007193Y-93865412D01*
X69944839Y-93833890D01*
X69928119Y-93814594D01*
X69798113Y-93628926D01*
X69798108Y-93628920D01*
X69631082Y-93461894D01*
X69437578Y-93326399D01*
X69223492Y-93226570D01*
X69223486Y-93226567D01*
X69010000Y-93169364D01*
X69010000Y-94066988D01*
X68952993Y-94034075D01*
X68825826Y-94000000D01*
X68694174Y-94000000D01*
X68567007Y-94034075D01*
X68510000Y-94066988D01*
X68510000Y-93169364D01*
X68509999Y-93169364D01*
X68296513Y-93226567D01*
X68296507Y-93226570D01*
X68082422Y-93326399D01*
X68082420Y-93326400D01*
X67888926Y-93461886D01*
X67888920Y-93461891D01*
X67721891Y-93628920D01*
X67721890Y-93628922D01*
X67591880Y-93814595D01*
X67537303Y-93858219D01*
X67467804Y-93865412D01*
X67405450Y-93833890D01*
X67388730Y-93814594D01*
X67258494Y-93628597D01*
X67091402Y-93461506D01*
X67091395Y-93461501D01*
X66897834Y-93325967D01*
X66897830Y-93325965D01*
X66826727Y-93292809D01*
X66683663Y-93226097D01*
X66683659Y-93226096D01*
X66683655Y-93226094D01*
X66455413Y-93164938D01*
X66455403Y-93164936D01*
X66220001Y-93144341D01*
X66219999Y-93144341D01*
X65984596Y-93164936D01*
X65984586Y-93164938D01*
X65756344Y-93226094D01*
X65756335Y-93226098D01*
X65542171Y-93325964D01*
X65542169Y-93325965D01*
X65348597Y-93461505D01*
X65181505Y-93628597D01*
X65051575Y-93814158D01*
X64996998Y-93857783D01*
X64927500Y-93864977D01*
X64865145Y-93833454D01*
X64848425Y-93814158D01*
X64718494Y-93628597D01*
X64551402Y-93461506D01*
X64551395Y-93461501D01*
X64357834Y-93325967D01*
X64357830Y-93325965D01*
X64286727Y-93292809D01*
X64143663Y-93226097D01*
X64143659Y-93226096D01*
X64143655Y-93226094D01*
X63915413Y-93164938D01*
X63915403Y-93164936D01*
X63680001Y-93144341D01*
X63679999Y-93144341D01*
X63444596Y-93164936D01*
X63444586Y-93164938D01*
X63216344Y-93226094D01*
X63216335Y-93226098D01*
X63002171Y-93325964D01*
X63002169Y-93325965D01*
X62808597Y-93461505D01*
X62712181Y-93557922D01*
X62650858Y-93591407D01*
X62581166Y-93586423D01*
X62525233Y-93544551D01*
X62500816Y-93479087D01*
X62500500Y-93470241D01*
X62500500Y-92663586D01*
X62516424Y-92602795D01*
X64348937Y-89344994D01*
X90575057Y-89344994D01*
X90575057Y-89345005D01*
X90594807Y-89658942D01*
X90594808Y-89658949D01*
X90653755Y-89967958D01*
X90750963Y-90267132D01*
X90750965Y-90267137D01*
X90884900Y-90551761D01*
X90884903Y-90551767D01*
X91053457Y-90817367D01*
X91053460Y-90817371D01*
X91144286Y-90927160D01*
X91785748Y-90285698D01*
X91859588Y-90387330D01*
X92037670Y-90565412D01*
X92139300Y-90639250D01*
X91494971Y-91283579D01*
X91494972Y-91283581D01*
X91737772Y-91459985D01*
X91737790Y-91459996D01*
X92013447Y-91611540D01*
X92013455Y-91611544D01*
X92305926Y-91727340D01*
X92610620Y-91805573D01*
X92610629Y-91805575D01*
X92922701Y-91844999D01*
X92922715Y-91845000D01*
X93237285Y-91845000D01*
X93237298Y-91844999D01*
X93549370Y-91805575D01*
X93549379Y-91805573D01*
X93854073Y-91727340D01*
X94146544Y-91611544D01*
X94146552Y-91611540D01*
X94422209Y-91459996D01*
X94422219Y-91459990D01*
X94665026Y-91283579D01*
X94665027Y-91283579D01*
X94020698Y-90639251D01*
X94122330Y-90565412D01*
X94300412Y-90387330D01*
X94374251Y-90285699D01*
X95015712Y-90927160D01*
X95106544Y-90817364D01*
X95275096Y-90551767D01*
X95275099Y-90551761D01*
X95409034Y-90267137D01*
X95409036Y-90267132D01*
X95506244Y-89967958D01*
X95565191Y-89658949D01*
X95565192Y-89658942D01*
X95584943Y-89345005D01*
X95584943Y-89344994D01*
X95565192Y-89031057D01*
X95565191Y-89031050D01*
X95506244Y-88722041D01*
X95409036Y-88422867D01*
X95409034Y-88422862D01*
X95275099Y-88138238D01*
X95275096Y-88138232D01*
X95106542Y-87872632D01*
X95106539Y-87872628D01*
X95015712Y-87762838D01*
X94374250Y-88404300D01*
X94300412Y-88302670D01*
X94122330Y-88124588D01*
X94020698Y-88050748D01*
X94665027Y-87406419D01*
X94665026Y-87406417D01*
X94422227Y-87230014D01*
X94422209Y-87230003D01*
X94146552Y-87078459D01*
X94146544Y-87078455D01*
X93854073Y-86962659D01*
X93549379Y-86884426D01*
X93549370Y-86884424D01*
X93237298Y-86845000D01*
X92922701Y-86845000D01*
X92610629Y-86884424D01*
X92610620Y-86884426D01*
X92305926Y-86962659D01*
X92013455Y-87078455D01*
X92013447Y-87078459D01*
X91737787Y-87230004D01*
X91737782Y-87230007D01*
X91494972Y-87406418D01*
X91494971Y-87406419D01*
X92139301Y-88050748D01*
X92037670Y-88124588D01*
X91859588Y-88302670D01*
X91785748Y-88404300D01*
X91144286Y-87762838D01*
X91144285Y-87762838D01*
X91053459Y-87872629D01*
X91053457Y-87872632D01*
X90884903Y-88138232D01*
X90884900Y-88138238D01*
X90750965Y-88422862D01*
X90750963Y-88422867D01*
X90653755Y-88722041D01*
X90594808Y-89031050D01*
X90594807Y-89031057D01*
X90575057Y-89344994D01*
X64348937Y-89344994D01*
X72938310Y-74074998D01*
X90354532Y-74074998D01*
X90354532Y-74075001D01*
X90374364Y-74301686D01*
X90374366Y-74301697D01*
X90433258Y-74521488D01*
X90433261Y-74521497D01*
X90529431Y-74727732D01*
X90529432Y-74727734D01*
X90659954Y-74914141D01*
X90820858Y-75075045D01*
X90820861Y-75075047D01*
X91007266Y-75205568D01*
X91213504Y-75301739D01*
X91213509Y-75301740D01*
X91213511Y-75301741D01*
X91357136Y-75340225D01*
X91416797Y-75376590D01*
X91447326Y-75439437D01*
X91439031Y-75508812D01*
X91394546Y-75562690D01*
X91357136Y-75579775D01*
X91213511Y-75618258D01*
X91213502Y-75618261D01*
X91007267Y-75714431D01*
X91007265Y-75714432D01*
X90820858Y-75844954D01*
X90659954Y-76005858D01*
X90529432Y-76192265D01*
X90529431Y-76192267D01*
X90433261Y-76398502D01*
X90433258Y-76398511D01*
X90374366Y-76618302D01*
X90374364Y-76618313D01*
X90354532Y-76844998D01*
X90354532Y-76845001D01*
X90374364Y-77071686D01*
X90374366Y-77071697D01*
X90433258Y-77291488D01*
X90433261Y-77291497D01*
X90529431Y-77497732D01*
X90529432Y-77497734D01*
X90659954Y-77684141D01*
X90820858Y-77845045D01*
X90820861Y-77845047D01*
X91007266Y-77975568D01*
X91213504Y-78071739D01*
X91213509Y-78071740D01*
X91213511Y-78071741D01*
X91357136Y-78110225D01*
X91416797Y-78146590D01*
X91447326Y-78209437D01*
X91439031Y-78278812D01*
X91394546Y-78332690D01*
X91357136Y-78349775D01*
X91213511Y-78388258D01*
X91213502Y-78388261D01*
X91007267Y-78484431D01*
X91007265Y-78484432D01*
X90820858Y-78614954D01*
X90659954Y-78775858D01*
X90529432Y-78962265D01*
X90529431Y-78962267D01*
X90433261Y-79168502D01*
X90433258Y-79168511D01*
X90374366Y-79388302D01*
X90374364Y-79388313D01*
X90354532Y-79614998D01*
X90354532Y-79615001D01*
X90374364Y-79841686D01*
X90374366Y-79841697D01*
X90433258Y-80061488D01*
X90433261Y-80061497D01*
X90529431Y-80267732D01*
X90529432Y-80267734D01*
X90659954Y-80454141D01*
X90820858Y-80615045D01*
X90820861Y-80615047D01*
X91007266Y-80745568D01*
X91213504Y-80841739D01*
X91358102Y-80880483D01*
X91417761Y-80916848D01*
X91448291Y-80979694D01*
X91439997Y-81049070D01*
X91395512Y-81102948D01*
X91358102Y-81120033D01*
X91213680Y-81158731D01*
X91213673Y-81158734D01*
X91007516Y-81254866D01*
X91007512Y-81254868D01*
X90934526Y-81305973D01*
X90934526Y-81305974D01*
X91530590Y-81902037D01*
X91467007Y-81919075D01*
X91352993Y-81984901D01*
X91259901Y-82077993D01*
X91194075Y-82192007D01*
X91177037Y-82255589D01*
X90580974Y-81659526D01*
X90580973Y-81659526D01*
X90529868Y-81732512D01*
X90529866Y-81732516D01*
X90433734Y-81938673D01*
X90433730Y-81938682D01*
X90374860Y-82158389D01*
X90374858Y-82158400D01*
X90355034Y-82384997D01*
X90355034Y-82385002D01*
X90374858Y-82611599D01*
X90374860Y-82611610D01*
X90433730Y-82831317D01*
X90433735Y-82831331D01*
X90529863Y-83037478D01*
X90580974Y-83110472D01*
X91177037Y-82514409D01*
X91194075Y-82577993D01*
X91259901Y-82692007D01*
X91352993Y-82785099D01*
X91467007Y-82850925D01*
X91530590Y-82867962D01*
X90934526Y-83464025D01*
X91007513Y-83515132D01*
X91007521Y-83515136D01*
X91213668Y-83611264D01*
X91213682Y-83611269D01*
X91433389Y-83670139D01*
X91433400Y-83670141D01*
X91659998Y-83689966D01*
X91660002Y-83689966D01*
X91886599Y-83670141D01*
X91886610Y-83670139D01*
X92106317Y-83611269D01*
X92106331Y-83611264D01*
X92312478Y-83515136D01*
X92385471Y-83464024D01*
X91789409Y-82867962D01*
X91852993Y-82850925D01*
X91967007Y-82785099D01*
X92060099Y-82692007D01*
X92125925Y-82577993D01*
X92142962Y-82514409D01*
X92739024Y-83110471D01*
X92790136Y-83037478D01*
X92886264Y-82831331D01*
X92886269Y-82831317D01*
X92945139Y-82611610D01*
X92945141Y-82611599D01*
X92964966Y-82385002D01*
X92964966Y-82384997D01*
X92945141Y-82158400D01*
X92945139Y-82158389D01*
X92886269Y-81938682D01*
X92886264Y-81938668D01*
X92790136Y-81732521D01*
X92790132Y-81732513D01*
X92739025Y-81659526D01*
X92142962Y-82255589D01*
X92125925Y-82192007D01*
X92060099Y-82077993D01*
X91967007Y-81984901D01*
X91852993Y-81919075D01*
X91789410Y-81902037D01*
X92385472Y-81305974D01*
X92312478Y-81254863D01*
X92106331Y-81158735D01*
X92106319Y-81158731D01*
X91961897Y-81120033D01*
X91902237Y-81083668D01*
X91871708Y-81020821D01*
X91880003Y-80951445D01*
X91924488Y-80897567D01*
X91961894Y-80880484D01*
X92106496Y-80841739D01*
X92312734Y-80745568D01*
X92499139Y-80615047D01*
X92660047Y-80454139D01*
X92790568Y-80267734D01*
X92886739Y-80061496D01*
X92945635Y-79841692D01*
X92965468Y-79615000D01*
X92961197Y-79566188D01*
X92945635Y-79388313D01*
X92945635Y-79388308D01*
X92886739Y-79168504D01*
X92790568Y-78962266D01*
X92660047Y-78775861D01*
X92660045Y-78775858D01*
X92499141Y-78614954D01*
X92312734Y-78484432D01*
X92312732Y-78484431D01*
X92106497Y-78388261D01*
X92106488Y-78388258D01*
X91983966Y-78355429D01*
X91962862Y-78349774D01*
X91903202Y-78313410D01*
X91872673Y-78250563D01*
X91880968Y-78181188D01*
X91925453Y-78127310D01*
X91962862Y-78110225D01*
X92106496Y-78071739D01*
X92312734Y-77975568D01*
X92499139Y-77845047D01*
X92660047Y-77684139D01*
X92790568Y-77497734D01*
X92886739Y-77291496D01*
X92945635Y-77071692D01*
X92965468Y-76845000D01*
X92961197Y-76796188D01*
X92945635Y-76618313D01*
X92945635Y-76618308D01*
X92886739Y-76398504D01*
X92790568Y-76192266D01*
X92660047Y-76005861D01*
X92660045Y-76005858D01*
X92499141Y-75844954D01*
X92312734Y-75714432D01*
X92312732Y-75714431D01*
X92106497Y-75618261D01*
X92106488Y-75618258D01*
X91983966Y-75585429D01*
X91962862Y-75579774D01*
X91903202Y-75543410D01*
X91872673Y-75480563D01*
X91880968Y-75411188D01*
X91925453Y-75357310D01*
X91962862Y-75340225D01*
X92106496Y-75301739D01*
X92312734Y-75205568D01*
X92499139Y-75075047D01*
X92660047Y-74914139D01*
X92790568Y-74727734D01*
X92886739Y-74521496D01*
X92945635Y-74301692D01*
X92965468Y-74075000D01*
X92961197Y-74026188D01*
X92945635Y-73848313D01*
X92945635Y-73848308D01*
X92886739Y-73628504D01*
X92790568Y-73422266D01*
X92660047Y-73235861D01*
X92660045Y-73235858D01*
X92499141Y-73074954D01*
X92312734Y-72944432D01*
X92312732Y-72944431D01*
X92106497Y-72848261D01*
X92101402Y-72846407D01*
X92101969Y-72844847D01*
X92048753Y-72812408D01*
X92018225Y-72749560D01*
X92025348Y-72689998D01*
X93194532Y-72689998D01*
X93194532Y-72690001D01*
X93214364Y-72916686D01*
X93214366Y-72916697D01*
X93273258Y-73136488D01*
X93273261Y-73136497D01*
X93369431Y-73342732D01*
X93369432Y-73342734D01*
X93499954Y-73529141D01*
X93660858Y-73690045D01*
X93660861Y-73690047D01*
X93847266Y-73820568D01*
X94053504Y-73916739D01*
X94053509Y-73916740D01*
X94053511Y-73916741D01*
X94197136Y-73955225D01*
X94256797Y-73991590D01*
X94287326Y-74054437D01*
X94279031Y-74123812D01*
X94234546Y-74177690D01*
X94197136Y-74194775D01*
X94053511Y-74233258D01*
X94053502Y-74233261D01*
X93847267Y-74329431D01*
X93847265Y-74329432D01*
X93660858Y-74459954D01*
X93499954Y-74620858D01*
X93369432Y-74807265D01*
X93369431Y-74807267D01*
X93273261Y-75013502D01*
X93273258Y-75013511D01*
X93214366Y-75233302D01*
X93214364Y-75233313D01*
X93194532Y-75459998D01*
X93194532Y-75460001D01*
X93214364Y-75686686D01*
X93214366Y-75686697D01*
X93273258Y-75906488D01*
X93273261Y-75906497D01*
X93369431Y-76112732D01*
X93369432Y-76112734D01*
X93499954Y-76299141D01*
X93660858Y-76460045D01*
X93660861Y-76460047D01*
X93847266Y-76590568D01*
X94053504Y-76686739D01*
X94053509Y-76686740D01*
X94053511Y-76686741D01*
X94197136Y-76725225D01*
X94256797Y-76761590D01*
X94287326Y-76824437D01*
X94279031Y-76893812D01*
X94234546Y-76947690D01*
X94197136Y-76964775D01*
X94053511Y-77003258D01*
X94053502Y-77003261D01*
X93847267Y-77099431D01*
X93847265Y-77099432D01*
X93660858Y-77229954D01*
X93499954Y-77390858D01*
X93369432Y-77577265D01*
X93369431Y-77577267D01*
X93273261Y-77783502D01*
X93273258Y-77783511D01*
X93214366Y-78003302D01*
X93214364Y-78003313D01*
X93194532Y-78229998D01*
X93194532Y-78230001D01*
X93214364Y-78456686D01*
X93214366Y-78456697D01*
X93273258Y-78676488D01*
X93273261Y-78676497D01*
X93369431Y-78882732D01*
X93369432Y-78882734D01*
X93499954Y-79069141D01*
X93660858Y-79230045D01*
X93660861Y-79230047D01*
X93847266Y-79360568D01*
X94053504Y-79456739D01*
X94053509Y-79456740D01*
X94053511Y-79456741D01*
X94197136Y-79495225D01*
X94256797Y-79531590D01*
X94287326Y-79594437D01*
X94279031Y-79663812D01*
X94234546Y-79717690D01*
X94197136Y-79734775D01*
X94053511Y-79773258D01*
X94053502Y-79773261D01*
X93847267Y-79869431D01*
X93847265Y-79869432D01*
X93660858Y-79999954D01*
X93499954Y-80160858D01*
X93369432Y-80347265D01*
X93369431Y-80347267D01*
X93273261Y-80553502D01*
X93273258Y-80553511D01*
X93214366Y-80773302D01*
X93214364Y-80773313D01*
X93194532Y-80999998D01*
X93194532Y-81000001D01*
X93214364Y-81226686D01*
X93214366Y-81226697D01*
X93273258Y-81446488D01*
X93273261Y-81446497D01*
X93369431Y-81652732D01*
X93369432Y-81652734D01*
X93499954Y-81839141D01*
X93660858Y-82000045D01*
X93660861Y-82000047D01*
X93847266Y-82130568D01*
X94053504Y-82226739D01*
X94273308Y-82285635D01*
X94435230Y-82299801D01*
X94499998Y-82305468D01*
X94500000Y-82305468D01*
X94500002Y-82305468D01*
X94556673Y-82300509D01*
X94726692Y-82285635D01*
X94946496Y-82226739D01*
X95152734Y-82130568D01*
X95339139Y-82000047D01*
X95500047Y-81839139D01*
X95630568Y-81652734D01*
X95726739Y-81446496D01*
X95785635Y-81226692D01*
X95805468Y-81000000D01*
X95803691Y-80979694D01*
X95796506Y-80897567D01*
X95785635Y-80773308D01*
X95726739Y-80553504D01*
X95630568Y-80347266D01*
X95500047Y-80160861D01*
X95500045Y-80160858D01*
X95339141Y-79999954D01*
X95152734Y-79869432D01*
X95152732Y-79869431D01*
X94946497Y-79773261D01*
X94946488Y-79773258D01*
X94823966Y-79740429D01*
X94802862Y-79734774D01*
X94743202Y-79698410D01*
X94712673Y-79635563D01*
X94720968Y-79566188D01*
X94765453Y-79512310D01*
X94802862Y-79495225D01*
X94946496Y-79456739D01*
X95152734Y-79360568D01*
X95339139Y-79230047D01*
X95500047Y-79069139D01*
X95630568Y-78882734D01*
X95726739Y-78676496D01*
X95785635Y-78456692D01*
X95805468Y-78230000D01*
X95801197Y-78181188D01*
X95785635Y-78003313D01*
X95785635Y-78003308D01*
X95726739Y-77783504D01*
X95630568Y-77577266D01*
X95500047Y-77390861D01*
X95500045Y-77390858D01*
X95339141Y-77229954D01*
X95152734Y-77099432D01*
X95152732Y-77099431D01*
X94946497Y-77003261D01*
X94946488Y-77003258D01*
X94823966Y-76970429D01*
X94802862Y-76964774D01*
X94743202Y-76928410D01*
X94712673Y-76865563D01*
X94720968Y-76796188D01*
X94765453Y-76742310D01*
X94802862Y-76725225D01*
X94946496Y-76686739D01*
X95152734Y-76590568D01*
X95339139Y-76460047D01*
X95500047Y-76299139D01*
X95630568Y-76112734D01*
X95726739Y-75906496D01*
X95785635Y-75686692D01*
X95805468Y-75460000D01*
X95801197Y-75411188D01*
X95785635Y-75233313D01*
X95785635Y-75233308D01*
X95726739Y-75013504D01*
X95630568Y-74807266D01*
X95500047Y-74620861D01*
X95500045Y-74620858D01*
X95339141Y-74459954D01*
X95152734Y-74329432D01*
X95152732Y-74329431D01*
X94946497Y-74233261D01*
X94946488Y-74233258D01*
X94823966Y-74200429D01*
X94802862Y-74194774D01*
X94743202Y-74158410D01*
X94712673Y-74095563D01*
X94720968Y-74026188D01*
X94765453Y-73972310D01*
X94802862Y-73955225D01*
X94946496Y-73916739D01*
X95152734Y-73820568D01*
X95339139Y-73690047D01*
X95500047Y-73529139D01*
X95630568Y-73342734D01*
X95726739Y-73136496D01*
X95785635Y-72916692D01*
X95805468Y-72690000D01*
X95804373Y-72677489D01*
X95799754Y-72624685D01*
X95785635Y-72463308D01*
X95726739Y-72243504D01*
X95630568Y-72037266D01*
X95500047Y-71850861D01*
X95500045Y-71850858D01*
X95339141Y-71689954D01*
X95152734Y-71559432D01*
X95152732Y-71559431D01*
X94946497Y-71463261D01*
X94946488Y-71463258D01*
X94726697Y-71404366D01*
X94726693Y-71404365D01*
X94726692Y-71404365D01*
X94726691Y-71404364D01*
X94726686Y-71404364D01*
X94500002Y-71384532D01*
X94499998Y-71384532D01*
X94273313Y-71404364D01*
X94273302Y-71404366D01*
X94053511Y-71463258D01*
X94053502Y-71463261D01*
X93847267Y-71559431D01*
X93847265Y-71559432D01*
X93660858Y-71689954D01*
X93499954Y-71850858D01*
X93369432Y-72037265D01*
X93369431Y-72037267D01*
X93273261Y-72243502D01*
X93273258Y-72243511D01*
X93214366Y-72463302D01*
X93214364Y-72463313D01*
X93194532Y-72689998D01*
X92025348Y-72689998D01*
X92026522Y-72680185D01*
X92071009Y-72626308D01*
X92137561Y-72605035D01*
X92140509Y-72605000D01*
X92507828Y-72605000D01*
X92507844Y-72604999D01*
X92567372Y-72598598D01*
X92567379Y-72598596D01*
X92702086Y-72548354D01*
X92702093Y-72548350D01*
X92817187Y-72462190D01*
X92817190Y-72462187D01*
X92903350Y-72347093D01*
X92903354Y-72347086D01*
X92953596Y-72212379D01*
X92953598Y-72212372D01*
X92959999Y-72152844D01*
X92960000Y-72152827D01*
X92960000Y-71555000D01*
X92093012Y-71555000D01*
X92125925Y-71497993D01*
X92160000Y-71370826D01*
X92160000Y-71239174D01*
X92125925Y-71112007D01*
X92093012Y-71055000D01*
X92960000Y-71055000D01*
X92960000Y-70457172D01*
X92959999Y-70457155D01*
X92953598Y-70397627D01*
X92953596Y-70397620D01*
X92903354Y-70262913D01*
X92903350Y-70262906D01*
X92817190Y-70147812D01*
X92817187Y-70147809D01*
X92702093Y-70061649D01*
X92702086Y-70061645D01*
X92567379Y-70011403D01*
X92567372Y-70011401D01*
X92507844Y-70005000D01*
X91910000Y-70005000D01*
X91910000Y-70871988D01*
X91852993Y-70839075D01*
X91725826Y-70805000D01*
X91594174Y-70805000D01*
X91467007Y-70839075D01*
X91410000Y-70871988D01*
X91410000Y-70005000D01*
X90812155Y-70005000D01*
X90752627Y-70011401D01*
X90752620Y-70011403D01*
X90617913Y-70061645D01*
X90617906Y-70061649D01*
X90502812Y-70147809D01*
X90502809Y-70147812D01*
X90416649Y-70262906D01*
X90416645Y-70262913D01*
X90366403Y-70397620D01*
X90366401Y-70397627D01*
X90360000Y-70457155D01*
X90360000Y-71055000D01*
X91226988Y-71055000D01*
X91194075Y-71112007D01*
X91160000Y-71239174D01*
X91160000Y-71370826D01*
X91194075Y-71497993D01*
X91226988Y-71555000D01*
X90360000Y-71555000D01*
X90360000Y-72152844D01*
X90366401Y-72212372D01*
X90366403Y-72212379D01*
X90416645Y-72347086D01*
X90416649Y-72347093D01*
X90502809Y-72462187D01*
X90502812Y-72462190D01*
X90617906Y-72548350D01*
X90617913Y-72548354D01*
X90752620Y-72598596D01*
X90752627Y-72598598D01*
X90812155Y-72604999D01*
X90812172Y-72605000D01*
X91179491Y-72605000D01*
X91246530Y-72624685D01*
X91292285Y-72677489D01*
X91302229Y-72746647D01*
X91273204Y-72810203D01*
X91218270Y-72845506D01*
X91218598Y-72846407D01*
X91214610Y-72847858D01*
X91214426Y-72847977D01*
X91213809Y-72848150D01*
X91213502Y-72848261D01*
X91007267Y-72944431D01*
X91007265Y-72944432D01*
X90820858Y-73074954D01*
X90659954Y-73235858D01*
X90529432Y-73422265D01*
X90529431Y-73422267D01*
X90433261Y-73628502D01*
X90433258Y-73628511D01*
X90374366Y-73848302D01*
X90374364Y-73848313D01*
X90354532Y-74074998D01*
X72938310Y-74074998D01*
X78411437Y-64344994D01*
X90575057Y-64344994D01*
X90575057Y-64345005D01*
X90594807Y-64658942D01*
X90594808Y-64658949D01*
X90653755Y-64967958D01*
X90750963Y-65267132D01*
X90750965Y-65267137D01*
X90884900Y-65551761D01*
X90884903Y-65551767D01*
X91053457Y-65817367D01*
X91053460Y-65817371D01*
X91144286Y-65927160D01*
X91785748Y-65285698D01*
X91859588Y-65387330D01*
X92037670Y-65565412D01*
X92139300Y-65639250D01*
X91494971Y-66283579D01*
X91494972Y-66283581D01*
X91737772Y-66459985D01*
X91737790Y-66459996D01*
X92013447Y-66611540D01*
X92013455Y-66611544D01*
X92305926Y-66727340D01*
X92610620Y-66805573D01*
X92610629Y-66805575D01*
X92922701Y-66844999D01*
X92922715Y-66845000D01*
X93237285Y-66845000D01*
X93237298Y-66844999D01*
X93549370Y-66805575D01*
X93549379Y-66805573D01*
X93854073Y-66727340D01*
X94146544Y-66611544D01*
X94146552Y-66611540D01*
X94422209Y-66459996D01*
X94422219Y-66459990D01*
X94665026Y-66283579D01*
X94665027Y-66283579D01*
X94020698Y-65639251D01*
X94122330Y-65565412D01*
X94300412Y-65387330D01*
X94374251Y-65285699D01*
X95015712Y-65927160D01*
X95106544Y-65817364D01*
X95275096Y-65551767D01*
X95275099Y-65551761D01*
X95409034Y-65267137D01*
X95409036Y-65267132D01*
X95506244Y-64967958D01*
X95565191Y-64658949D01*
X95565192Y-64658942D01*
X95584943Y-64345005D01*
X95584943Y-64344994D01*
X95565192Y-64031057D01*
X95565191Y-64031050D01*
X95506244Y-63722041D01*
X95409036Y-63422867D01*
X95409034Y-63422862D01*
X95275099Y-63138238D01*
X95275096Y-63138232D01*
X95106542Y-62872632D01*
X95106539Y-62872628D01*
X95015712Y-62762838D01*
X94374250Y-63404300D01*
X94300412Y-63302670D01*
X94122330Y-63124588D01*
X94020698Y-63050748D01*
X94665027Y-62406419D01*
X94665026Y-62406417D01*
X94422227Y-62230014D01*
X94422209Y-62230003D01*
X94146552Y-62078459D01*
X94146544Y-62078455D01*
X93854073Y-61962659D01*
X93549379Y-61884426D01*
X93549370Y-61884424D01*
X93237298Y-61845000D01*
X92922701Y-61845000D01*
X92610629Y-61884424D01*
X92610620Y-61884426D01*
X92305926Y-61962659D01*
X92013455Y-62078455D01*
X92013447Y-62078459D01*
X91737787Y-62230004D01*
X91737782Y-62230007D01*
X91494972Y-62406418D01*
X91494971Y-62406419D01*
X92139301Y-63050748D01*
X92037670Y-63124588D01*
X91859588Y-63302670D01*
X91785748Y-63404300D01*
X91144286Y-62762838D01*
X91144285Y-62762838D01*
X91053459Y-62872629D01*
X91053457Y-62872632D01*
X90884903Y-63138232D01*
X90884900Y-63138238D01*
X90750965Y-63422862D01*
X90750963Y-63422867D01*
X90653755Y-63722041D01*
X90594808Y-64031050D01*
X90594807Y-64031057D01*
X90575057Y-64344994D01*
X78411437Y-64344994D01*
X80257162Y-61063706D01*
X80307184Y-61014928D01*
X80365236Y-61000500D01*
X101875500Y-61000500D01*
X101942539Y-61020185D01*
G37*
%TD.AperFunction*%
%TD*%
M02*
