M48
; DRILL file {KiCad 8.0.3} date 2024-07-09T19:30:35+0200
; FORMAT={-:-/ absolute / inch / decimal}
; #@! TF.CreationDate,2024-07-09T19:30:35+02:00
; #@! TF.GenerationSoftware,Kicad,Pcbnew,8.0.3
; #@! TF.FileFunction,MixedPlating,1,2
FMAT,2
INCH
; #@! TA.AperFunction,Plated,PTH,ViaDrill
T1C0.0118
; #@! TA.AperFunction,Plated,PTH,ComponentDrill
T2C0.0394
; #@! TA.AperFunction,Plated,PTH,ComponentDrill
T3C0.1260
%
G90
G05
T1
X2.8937Y-3.0315
X2.8937Y-3.2283
X3.3661Y-3.3661
X3.4252Y-3.0315
T2
X2.5071Y-3.7205
X2.6071Y-3.7205
X2.7071Y-3.7205
X2.8071Y-3.7205
X2.9071Y-3.7205
X3.0071Y-3.7205
X3.1071Y-3.7205
X3.2071Y-3.7205
X3.3071Y-3.7205
X3.4071Y-3.7205
X3.6087Y-2.8073
X3.6087Y-2.9163
X3.6087Y-3.0254
X3.6087Y-3.1344
X3.6087Y-3.2435
X3.7205Y-2.8618
X3.7205Y-2.9709
X3.7205Y-3.0799
X3.7205Y-3.189
T3
X3.6646Y-2.5333
X3.6646Y-3.5175
M30
