%TF.GenerationSoftware,KiCad,Pcbnew,8.0.3*%
%TF.CreationDate,2024-07-09T19:30:08+02:00*%
%TF.ProjectId,UART-TTL-Flipper_Zero,55415254-2d54-4544-9c2d-466c69707065,rev?*%
%TF.SameCoordinates,Original*%
%TF.FileFunction,Copper,L1,Top*%
%TF.FilePolarity,Positive*%
%FSLAX46Y46*%
G04 Gerber Fmt 4.6, Leading zero omitted, Abs format (unit mm)*
G04 Created by KiCad (PCBNEW 8.0.3) date 2024-07-09 19:30:08*
%MOMM*%
%LPD*%
G01*
G04 APERTURE LIST*
G04 Aperture macros list*
%AMRoundRect*
0 Rectangle with rounded corners*
0 $1 Rounding radius*
0 $2 $3 $4 $5 $6 $7 $8 $9 X,Y pos of 4 corners*
0 Add a 4 corners polygon primitive as box body*
4,1,4,$2,$3,$4,$5,$6,$7,$8,$9,$2,$3,0*
0 Add four circle primitives for the rounded corners*
1,1,$1+$1,$2,$3*
1,1,$1+$1,$4,$5*
1,1,$1+$1,$6,$7*
1,1,$1+$1,$8,$9*
0 Add four rect primitives between the rounded corners*
20,1,$1+$1,$2,$3,$4,$5,0*
20,1,$1+$1,$4,$5,$6,$7,0*
20,1,$1+$1,$6,$7,$8,$9,0*
20,1,$1+$1,$8,$9,$2,$3,0*%
G04 Aperture macros list end*
%TA.AperFunction,ComponentPad*%
%ADD10R,1.700000X1.700000*%
%TD*%
%TA.AperFunction,ComponentPad*%
%ADD11O,1.700000X1.700000*%
%TD*%
%TA.AperFunction,SMDPad,CuDef*%
%ADD12RoundRect,0.073750X0.911250X0.221250X-0.911250X0.221250X-0.911250X-0.221250X0.911250X-0.221250X0*%
%TD*%
%TA.AperFunction,ComponentPad*%
%ADD13C,1.600000*%
%TD*%
%TA.AperFunction,ComponentPad*%
%ADD14R,1.600000X1.600000*%
%TD*%
%TA.AperFunction,ComponentPad*%
%ADD15C,4.000000*%
%TD*%
%TA.AperFunction,SMDPad,CuDef*%
%ADD16RoundRect,0.250000X-0.337500X-0.475000X0.337500X-0.475000X0.337500X0.475000X-0.337500X0.475000X0*%
%TD*%
%TA.AperFunction,SMDPad,CuDef*%
%ADD17RoundRect,0.250000X0.337500X0.475000X-0.337500X0.475000X-0.337500X-0.475000X0.337500X-0.475000X0*%
%TD*%
%TA.AperFunction,SMDPad,CuDef*%
%ADD18RoundRect,0.250000X0.475000X-0.337500X0.475000X0.337500X-0.475000X0.337500X-0.475000X-0.337500X0*%
%TD*%
%TA.AperFunction,ViaPad*%
%ADD19C,0.600000*%
%TD*%
%TA.AperFunction,Conductor*%
%ADD20C,0.200000*%
%TD*%
G04 APERTURE END LIST*
D10*
%TO.P,J1,1,Pin_1*%
%TO.N,GND*%
X86540000Y-94500000D03*
D11*
%TO.P,J1,2,Pin_2*%
%TO.N,unconnected-(J1-Pin_2-Pad2)*%
X84000000Y-94500000D03*
%TO.P,J1,3,Pin_3*%
%TO.N,unconnected-(J1-Pin_3-Pad3)*%
X81460000Y-94500000D03*
%TO.P,J1,4,Pin_4*%
%TO.N,unconnected-(J1-Pin_4-Pad4)*%
X78920000Y-94500000D03*
%TO.P,J1,5,Pin_5*%
%TO.N,Net-(J1-Pin_5)*%
X76380000Y-94500000D03*
%TO.P,J1,6,Pin_6*%
%TO.N,Net-(J1-Pin_6)*%
X73840000Y-94500000D03*
%TO.P,J1,7,Pin_7*%
%TO.N,unconnected-(J1-Pin_7-Pad7)*%
X71300000Y-94500000D03*
%TO.P,J1,8,Pin_8*%
%TO.N,GND*%
X68760000Y-94500000D03*
%TO.P,J1,9,Pin_9*%
%TO.N,unconnected-(J1-Pin_9-Pad9)*%
X66220000Y-94500000D03*
%TO.P,J1,10,Pin_10*%
%TO.N,+3.3V*%
X63680000Y-94500000D03*
%TD*%
D12*
%TO.P,U1,1,C1+*%
%TO.N,Net-(U1-C1+)*%
X80975000Y-83270000D03*
%TO.P,U1,2,VS+*%
%TO.N,Net-(U1-VS+)*%
X80975000Y-82000000D03*
%TO.P,U1,3,C1-*%
%TO.N,Net-(U1-C1-)*%
X80975000Y-80730000D03*
%TO.P,U1,4,C2+*%
%TO.N,Net-(U1-C2+)*%
X80975000Y-79460000D03*
%TO.P,U1,5,C2-*%
%TO.N,Net-(U1-C2-)*%
X80975000Y-78190000D03*
%TO.P,U1,6,VS-*%
%TO.N,Net-(U1-VS-)*%
X80975000Y-76920000D03*
%TO.P,U1,7,T2OUT*%
%TO.N,Net-(U1-T2OUT)*%
X80975000Y-75650000D03*
%TO.P,U1,8,R2IN*%
%TO.N,Net-(U1-R2IN)*%
X80975000Y-74380000D03*
%TO.P,U1,9,R2OUT*%
%TO.N,Net-(J1-Pin_5)*%
X76025000Y-74380000D03*
%TO.P,U1,10,T2IN*%
%TO.N,Net-(J1-Pin_6)*%
X76025000Y-75650000D03*
%TO.P,U1,11,T1IN*%
%TO.N,GND*%
X76025000Y-76920000D03*
%TO.P,U1,12,R1OUT*%
%TO.N,unconnected-(U1-R1OUT-Pad12)*%
X76025000Y-78190000D03*
%TO.P,U1,13,R1IN*%
%TO.N,unconnected-(U1-R1IN-Pad13)*%
X76025000Y-79460000D03*
%TO.P,U1,14,T1OUT*%
%TO.N,unconnected-(U1-T1OUT-Pad14)*%
X76025000Y-80730000D03*
%TO.P,U1,15,GND*%
%TO.N,GND*%
X76025000Y-82000000D03*
%TO.P,U1,16,VCC*%
%TO.N,+3.3V*%
X76025000Y-83270000D03*
%TD*%
D13*
%TO.P,J2,9,9*%
%TO.N,unconnected-(J2-Pad9)*%
X94500000Y-81000000D03*
%TO.P,J2,8,8*%
%TO.N,unconnected-(J2-Pad8)*%
X94500000Y-78230000D03*
%TO.P,J2,7,7*%
%TO.N,unconnected-(J2-Pad7)*%
X94500000Y-75460000D03*
%TO.P,J2,6,6*%
%TO.N,unconnected-(J2-Pad6)*%
X94500000Y-72690000D03*
%TO.P,J2,5,5*%
%TO.N,GND*%
X91660000Y-82385000D03*
%TO.P,J2,4,4*%
%TO.N,unconnected-(J2-Pad4)*%
X91660000Y-79615000D03*
%TO.P,J2,3,3*%
%TO.N,Net-(U1-T2OUT)*%
X91660000Y-76845000D03*
%TO.P,J2,2,2*%
%TO.N,Net-(U1-R2IN)*%
X91660000Y-74075000D03*
D14*
%TO.P,J2,1,1*%
%TO.N,GND*%
X91660000Y-71305000D03*
D15*
%TO.P,J2,0,PAD*%
X93080000Y-64345000D03*
X93080000Y-89345000D03*
%TD*%
D16*
%TO.P,C4,1*%
%TO.N,Net-(U1-VS-)*%
X83425000Y-77000000D03*
%TO.P,C4,2*%
%TO.N,GND*%
X85500000Y-77000000D03*
%TD*%
D17*
%TO.P,C3,1*%
%TO.N,GND*%
X84037500Y-85500000D03*
%TO.P,C3,2*%
%TO.N,Net-(U1-VS+)*%
X81962500Y-85500000D03*
%TD*%
D16*
%TO.P,C2,1*%
%TO.N,Net-(U1-C1+)*%
X85925000Y-83500000D03*
%TO.P,C2,2*%
%TO.N,Net-(U1-C1-)*%
X88000000Y-83500000D03*
%TD*%
D18*
%TO.P,C1,1*%
%TO.N,Net-(U1-C2+)*%
X87500000Y-80537500D03*
%TO.P,C1,2*%
%TO.N,Net-(U1-C2-)*%
X87500000Y-78462500D03*
%TD*%
D19*
%TO.N,GND*%
X85500000Y-85500000D03*
X73500000Y-77000000D03*
X73500000Y-82000000D03*
X87000000Y-77000000D03*
%TD*%
D20*
%TO.N,Net-(J1-Pin_5)*%
X77010000Y-74380000D02*
X76025000Y-74380000D01*
X77710000Y-75080000D02*
X77010000Y-74380000D01*
X76380000Y-94500000D02*
X77710000Y-93170000D01*
X77710000Y-93170000D02*
X77710000Y-75080000D01*
%TO.N,Net-(J1-Pin_6)*%
X77010000Y-75650000D02*
X76025000Y-75650000D01*
X77310000Y-75950000D02*
X77010000Y-75650000D01*
X77310000Y-91030000D02*
X77310000Y-75950000D01*
X73840000Y-94500000D02*
X77310000Y-91030000D01*
%TO.N,+3.3V*%
X76025000Y-83270000D02*
X74910000Y-83270000D01*
X74910000Y-83270000D02*
X63680000Y-94500000D01*
%TO.N,GND*%
X73580000Y-76920000D02*
X73500000Y-77000000D01*
X76025000Y-76920000D02*
X73580000Y-76920000D01*
X76025000Y-82000000D02*
X73500000Y-82000000D01*
X84037500Y-85500000D02*
X85500000Y-85500000D01*
%TO.N,Net-(U1-VS+)*%
X79690000Y-83690000D02*
X81500000Y-85500000D01*
X79690000Y-82300000D02*
X79690000Y-83690000D01*
X79990000Y-82000000D02*
X79690000Y-82300000D01*
X81500000Y-85500000D02*
X81962500Y-85500000D01*
X80975000Y-82000000D02*
X79990000Y-82000000D01*
%TO.N,Net-(U1-C2+)*%
X86422500Y-79460000D02*
X80975000Y-79460000D01*
X87500000Y-80537500D02*
X86422500Y-79460000D01*
%TO.N,Net-(U1-C2-)*%
X81247500Y-78462500D02*
X80975000Y-78190000D01*
X87500000Y-78462500D02*
X81247500Y-78462500D01*
%TO.N,Net-(U1-VS-)*%
X81055000Y-77000000D02*
X80975000Y-76920000D01*
X83425000Y-77000000D02*
X81055000Y-77000000D01*
%TO.N,GND*%
X85500000Y-77000000D02*
X87000000Y-77000000D01*
%TO.N,Net-(U1-C1-)*%
X85230000Y-80730000D02*
X80975000Y-80730000D01*
X88000000Y-83500000D02*
X85230000Y-80730000D01*
%TO.N,Net-(U1-C1+)*%
X81205000Y-83500000D02*
X80975000Y-83270000D01*
X85925000Y-83500000D02*
X81205000Y-83500000D01*
%TO.N,Net-(U1-T2OUT)*%
X90465000Y-75650000D02*
X91660000Y-76845000D01*
X80975000Y-75650000D02*
X90465000Y-75650000D01*
%TO.N,Net-(U1-R2IN)*%
X91355000Y-74380000D02*
X91660000Y-74075000D01*
X80975000Y-74380000D02*
X91355000Y-74380000D01*
%TD*%
M02*
